<svg width="14" height="16" viewBox="0 0 14 16" fill="none" xmlns="http://www.w3.org/2000/svg">
<path id="Icons" d="M8.3999 1H2.7999C2.4286 1 2.0725 1.1475 1.80995 1.41005C1.5474 1.6726 1.3999 2.0287 1.3999 2.4V13.6C1.3999 13.9713 1.5474 14.3274 1.80995 14.5899C2.0725 14.8525 2.4286 15 2.7999 15H11.1999C11.5712 15 11.9273 14.8525 12.1899 14.5899C12.4524 14.3274 12.5999 13.9713 12.5999 13.6V5.2M8.3999 1L12.5999 5.2M8.3999 1V5.2H12.5999M9.7999 8.7H4.1999M9.7999 11.5H4.1999M5.5999 5.9H4.1999" stroke="#94A3B8" stroke-width="1.5" stroke-linecap="round" stroke-linejoin="round"/>
</svg>
