<svg width="20" height="22" viewBox="0 0 20 22" fill="none" xmlns="http://www.w3.org/2000/svg">
<path id="Icons" d="M11.73 20.0017C11.5542 20.3048 11.3018 20.5564 10.9982 20.7312C10.6946 20.9061 10.3504 20.9982 10 20.9982C9.64962 20.9982 9.30539 20.9061 9.00177 20.7312C8.69816 20.5564 8.44581 20.3048 8.27 20.0017M16 7.00171C16 5.41041 15.3679 3.88429 14.2426 2.75907C13.1174 1.63385 11.5913 1.00171 10 1.00171C8.4087 1.00171 6.88258 1.63385 5.75736 2.75907C4.63214 3.88429 4 5.41041 4 7.00171C4 14.0017 1 16.0017 1 16.0017H19C19 16.0017 16 14.0017 16 7.00171Z" stroke="#475569" stroke-width="2" stroke-linecap="round" stroke-linejoin="round"/>
</svg>
