<svg width="148" height="74" viewBox="0 0 148 74" fill="none" xmlns="http://www.w3.org/2000/svg">
<g id="Chart">
<rect id="Rectangle 142" x="0.0332031" y="0.297852" width="73.4441" height="6.42636" rx="3.21318" fill="#E0E7FF"/>
<rect id="Rectangle 144" x="0.0332031" y="11.3145" width="32.1318" height="6.42636" rx="3.21318" fill="#E0E7FF"/>
<rect id="Rectangle 147" x="112.036" y="2.13379" width="35.804" height="6.42636" rx="3.21318" fill="#AC46CB"/>
<rect id="Rectangle 146" x="112.036" y="13.1509" width="35.804" height="6.42636" rx="3.21318" fill="#AC46CB"/>
<rect id="Rectangle 16" x="131.237" y="33.0811" width="10.4552" height="40.3273" rx="5.22761" fill="#E0E7FF"/>
<rect id="Rectangle 11" x="131.237" y="52.9961" width="10.4552" height="20.4126" rx="5.22761" fill="#CE2D95"/>
<rect id="Rectangle 15" x="109.829" y="33.0811" width="10.4552" height="40.3273" rx="5.22761" fill="#E0E7FF"/>
<rect id="Rectangle 10" x="109.829" y="61.4595" width="10.4552" height="11.9488" rx="5.22761" fill="#CE2D95"/>
<rect id="Rectangle 14" x="88.4204" y="33.0811" width="10.4552" height="40.3273" rx="5.22761" fill="#E0E7FF"/>
<rect id="Rectangle 9" x="88.4204" y="45.0298" width="10.4552" height="28.3785" rx="5.22761" fill="#CE2D95"/>
<rect id="Rectangle 13" x="67.0122" y="33.0811" width="10.4552" height="40.3273" rx="5.22761" fill="#E0E7FF"/>
<rect id="Rectangle 8" x="67.0122" y="48.5151" width="10.4552" height="24.8934" rx="5.22761" fill="#CE2D95"/>
<rect id="Rectangle 18" x="45.604" y="33.0811" width="10.4552" height="40.3273" rx="5.22761" fill="#E0E7FF"/>
<rect id="Rectangle 7" x="45.604" y="52.9961" width="10.4552" height="20.4126" rx="5.22761" fill="#CE2D95"/>
<rect id="Rectangle 6" x="24.1958" y="33.0811" width="10.4552" height="40.3273" rx="5.22761" fill="#E0E7FF"/>
<rect id="Rectangle 17" x="24.1958" y="43.0376" width="10.4552" height="30.3699" rx="5.22761" fill="#CE2D95"/>
<rect id="Rectangle 12" x="2.78711" y="33.0811" width="10.4552" height="40.3273" rx="5.22761" fill="#E0E7FF"/>
<rect id="Rectangle 5" x="2.78711" y="58.4722" width="10.4552" height="14.936" rx="5.22761" fill="#CE2D95"/>
</g>
</svg>
