<svg width="21" height="18" viewBox="0 0 21 18" fill="none" xmlns="http://www.w3.org/2000/svg">
<path id="Icons" d="M13.7727 16.3636V14.7273C13.7727 13.8593 13.4279 13.0268 12.8142 12.4131C12.2004 11.7993 11.368 11.4545 10.5 11.4545H4.77273C3.90475 11.4545 3.07232 11.7993 2.45856 12.4131C1.8448 13.0268 1.5 13.8593 1.5 14.7273V16.3636M14.5909 8.18181L16.2273 9.81817L19.5 6.54544M10.9091 4.90908C10.9091 6.71656 9.44384 8.18181 7.63636 8.18181C5.82889 8.18181 4.36364 6.71656 4.36364 4.90908C4.36364 3.1016 5.82889 1.63635 7.63636 1.63635C9.44384 1.63635 10.9091 3.1016 10.9091 4.90908Z" stroke="white" stroke-width="1.5" stroke-linecap="round" stroke-linejoin="round"/>
</svg>
