<svg width="16" height="16" viewBox="0 0 16 16" fill="none" xmlns="http://www.w3.org/2000/svg">
<path id="Icons" d="M11.4644 1.58492C11.6498 1.39948 11.87 1.25238 12.1123 1.15201C12.3546 1.05165 12.6143 1 12.8765 1C13.1388 1 13.3984 1.05165 13.6407 1.15201C13.883 1.25238 14.1032 1.39948 14.2886 1.58492C14.4741 1.77036 14.6212 1.99051 14.7215 2.2328C14.8219 2.47509 14.8735 2.73478 14.8735 2.99703C14.8735 3.25928 14.8219 3.51897 14.7215 3.76126C14.6212 4.00355 14.4741 4.2237 14.2886 4.40914L4.75685 13.9409L0.873535 15L1.93262 11.1167L11.4644 1.58492Z" stroke="#475569" stroke-width="1.5" stroke-linecap="round" stroke-linejoin="round"/>
</svg>
