<svg width="18" height="16" viewBox="0 0 18 16" fill="none" xmlns="http://www.w3.org/2000/svg">
<path id="Icons" d="M8.99995 4.11111C8.99995 3.28599 8.67217 2.49467 8.08872 1.91122C7.50528 1.32778 6.71395 1 5.88883 1H1.22217V12.6667H6.66661C7.28545 12.6667 7.87894 12.9125 8.31653 13.3501C8.75411 13.7877 8.99995 14.3812 8.99995 15M8.99995 4.11111V15M8.99995 4.11111C8.99995 3.28599 9.32772 2.49467 9.91117 1.91122C10.4946 1.32778 11.2859 1 12.1111 1H16.7777V12.6667H11.3333C10.7144 12.6667 10.1209 12.9125 9.68336 13.3501C9.24578 13.7877 8.99995 14.3812 8.99995 15" stroke="#CBD5E1" stroke-width="1.5" stroke-linecap="round" stroke-linejoin="round"/>
</svg>
