<svg width="20" height="16" viewBox="0 0 20 16" fill="none" xmlns="http://www.w3.org/2000/svg">
<path id="Vector" d="M2.46662 1.81818L9.73935 6.36364L17.0121 1.81818H2.46662ZM2.46662 14.5455C1.96662 14.5455 1.53859 14.3674 1.18253 14.0114C0.826468 13.6553 0.648438 13.2273 0.648438 12.7273V1.81818C0.648438 1.31818 0.826468 0.890152 1.18253 0.534091C1.53859 0.17803 1.96662 0 2.46662 0H17.0121C17.5121 0 17.9401 0.17803 18.2962 0.534091C18.6522 0.890152 18.8303 1.31818 18.8303 1.81818V5.77273L17.9212 6.68182L17.0121 7.59091V3.63636L10.2166 7.88636C10.1712 7.91667 10.0121 7.96212 9.73935 8.02273C9.66359 8.02273 9.58404 8.01136 9.50071 7.98864C9.41738 7.96591 9.33783 7.93182 9.26207 7.88636L2.46662 3.63636V12.7273H7.14844L8.96662 14.5455H2.46662ZM13.3303 13.8182L17.8303 9.31818C17.9969 9.15152 18.209 9.06818 18.4666 9.06818C18.7242 9.06818 18.9363 9.15152 19.103 9.31818C19.2696 9.48485 19.353 9.69697 19.353 9.95455C19.353 10.2121 19.2696 10.4242 19.103 10.5909L13.9666 15.7273C13.7848 15.9091 13.5727 16 13.3303 16C13.0878 16 12.8757 15.9091 12.6939 15.7273L10.103 13.1364C9.93632 12.9697 9.85298 12.7576 9.85298 12.5C9.85298 12.2424 9.93632 12.0303 10.103 11.8636C10.2696 11.697 10.4818 11.6136 10.7393 11.6136C10.9969 11.6136 11.209 11.697 11.3757 11.8636L13.3303 13.8182Z" fill="#6366F1"/>
</svg>
