<svg width="16" height="12" viewBox="0 0 16 12" fill="none" xmlns="http://www.w3.org/2000/svg">
<path id="Vector" d="M0 11.818V9.78164C0 9.36952 0.106061 8.99073 0.318182 8.64528C0.530303 8.29982 0.812121 8.03619 1.16364 7.85437C1.91515 7.47861 2.67879 7.19679 3.45455 7.00891C4.2303 6.82103 5.01818 6.7271 5.81818 6.7271C6.61818 6.7271 7.40606 6.82103 8.18182 7.00891C8.95758 7.19679 9.72121 7.47861 10.4727 7.85437C10.8242 8.03619 11.1061 8.29982 11.3182 8.64528C11.5303 8.99073 11.6364 9.36952 11.6364 9.78164V11.818H0ZM13.0909 11.818V9.63619C13.0909 9.10285 12.9424 8.59073 12.6455 8.09982C12.3485 7.60891 11.9273 7.1877 11.3818 6.83619C12 6.90891 12.5818 7.03316 13.1273 7.20891C13.6727 7.38467 14.1818 7.59982 14.6545 7.85437C15.0909 8.09679 15.4242 8.36649 15.6545 8.66346C15.8848 8.96043 16 9.28467 16 9.63619V11.818H13.0909ZM5.81818 5.99982C5.01818 5.99982 4.33333 5.71497 3.76364 5.14528C3.19394 4.57558 2.90909 3.89073 2.90909 3.09073C2.90909 2.29073 3.19394 1.60588 3.76364 1.03619C4.33333 0.466489 5.01818 0.181641 5.81818 0.181641C6.61818 0.181641 7.30303 0.466489 7.87273 1.03619C8.44242 1.60588 8.72727 2.29073 8.72727 3.09073C8.72727 3.89073 8.44242 4.57558 7.87273 5.14528C7.30303 5.71497 6.61818 5.99982 5.81818 5.99982ZM13.0909 3.09073C13.0909 3.89073 12.8061 4.57558 12.2364 5.14528C11.6667 5.71497 10.9818 5.99982 10.1818 5.99982C10.0485 5.99982 9.87879 5.98467 9.67273 5.95437C9.46667 5.92407 9.29697 5.89073 9.16364 5.85437C9.49091 5.46649 9.74242 5.03619 9.91818 4.56346C10.0939 4.09073 10.1818 3.59982 10.1818 3.09073C10.1818 2.58164 10.0939 2.09073 9.91818 1.618C9.74242 1.14528 9.49091 0.714974 9.16364 0.327095C9.33333 0.266489 9.50303 0.227095 9.67273 0.208913C9.84242 0.190732 10.0121 0.181641 10.1818 0.181641C10.9818 0.181641 11.6667 0.466489 12.2364 1.03619C12.8061 1.60588 13.0909 2.29073 13.0909 3.09073ZM1.45455 10.3635H10.1818V9.78164C10.1818 9.64831 10.1485 9.52709 10.0818 9.418C10.0152 9.30891 9.92727 9.22407 9.81818 9.16346C9.16364 8.83619 8.50303 8.59073 7.83636 8.4271C7.1697 8.26346 6.49697 8.18164 5.81818 8.18164C5.13939 8.18164 4.46667 8.26346 3.8 8.4271C3.13333 8.59073 2.47273 8.83619 1.81818 9.16346C1.70909 9.22407 1.62121 9.30891 1.55455 9.418C1.48788 9.52709 1.45455 9.64831 1.45455 9.78164V10.3635ZM5.81818 4.54528C6.21818 4.54528 6.56061 4.40285 6.84546 4.118C7.1303 3.83316 7.27273 3.49073 7.27273 3.09073C7.27273 2.69073 7.1303 2.34831 6.84546 2.06346C6.56061 1.77861 6.21818 1.63619 5.81818 1.63619C5.41818 1.63619 5.07576 1.77861 4.79091 2.06346C4.50606 2.34831 4.36364 2.69073 4.36364 3.09073C4.36364 3.49073 4.50606 3.83316 4.79091 4.118C5.07576 4.40285 5.41818 4.54528 5.81818 4.54528Z" fill="#94A3B8"/>
</svg>
