<svg width="26" height="28" viewBox="0 0 26 28" fill="none" xmlns="http://www.w3.org/2000/svg">
<g id="Vector">
<path d="M25.2 28H0C0 22.54 3.08 17.92 8.82 16.94L11.9 23.66C11.2 18.62 11.48 20.02 10.78 17.5C10.64 17.22 10.92 16.8 11.34 16.8H13.86C14.28 16.8 14.56 17.22 14.42 17.64C13.72 20.16 13.86 18.9 13.3 23.8L16.38 17.08C22.12 17.92 25.2 22.54 25.2 28Z" fill="#94A3B8"/>
<path d="M12.6 14C16.466 14 19.6 10.866 19.6 7C19.6 3.13401 16.466 0 12.6 0C8.73401 0 5.6 3.13401 5.6 7C5.6 10.866 8.73401 14 12.6 14Z" fill="#94A3B8"/>
</g>
</svg>
