<svg width="24" height="28" viewBox="0 0 24 28" fill="none" xmlns="http://www.w3.org/2000/svg">
<g id="Vector">
<path d="M3.21525 4.8437C3.48553 4.9958 5.30483 5.87472 6.18375 6.29795C6.18719 6.63909 6.19474 7.22903 6.20633 7.23905C6.3032 8.08381 6.46949 9.02231 6.51765 9.28734C6.43774 9.33164 6.02701 9.60023 6.02701 10.4356C6.02737 10.4404 6.02779 10.4447 6.02815 10.4495C6.02755 10.4714 6.02701 10.4935 6.02701 10.5162C6.20379 12.8382 7.12726 11.8374 7.31769 12.8545C7.63445 14.5456 9.1318 15.7691 10.0638 16.1915C10.6025 16.4355 11.1569 16.56 11.7395 16.572C12.3222 16.5601 12.8766 16.4355 13.4153 16.1915C14.3473 15.7691 15.8446 14.5456 16.1614 12.8545C16.3518 11.8374 17.2753 12.8382 17.4522 10.5162C17.4522 10.4934 17.4515 10.4714 17.4509 10.4495C17.4513 10.4448 17.4517 10.4404 17.4522 10.4356C17.4522 9.60017 17.0413 9.33164 16.9614 9.28734C17.0097 9.02231 17.176 8.08387 17.2728 7.23905C17.2843 7.22903 17.2919 6.63915 17.2953 6.29795C17.7781 6.06545 18.5443 5.69564 19.1819 5.3842V7.62884C19.0048 7.73337 18.8803 7.91789 18.8803 8.13789C18.8803 8.33267 18.9791 8.49768 19.1232 8.60675C19.1232 8.60675 18.8671 10.0466 18.7842 10.47C18.7014 10.8934 20.245 10.8085 20.1755 10.47C20.1061 10.1315 19.8367 8.60675 19.8367 8.60675C19.9808 8.49768 20.0796 8.33267 20.0796 8.13789C20.0796 7.91783 19.9557 7.73343 19.7787 7.62884V5.09092C20.0163 4.97304 20.1932 4.88341 20.2638 4.8437C20.4551 4.73608 20.558 4.5984 20.5363 4.45535C20.5624 4.30621 20.4546 4.1459 20.1652 4.00418C18.0995 2.99307 12.8335 0.415984 12.3128 0.167613C12.0856 0.0592711 11.8986 0.0114076 11.7395 0C11.5805 0.0114076 11.3935 0.0592711 11.1663 0.167613C10.6456 0.415984 5.37955 2.99313 3.31399 4.00418C3.02446 4.1459 2.91666 4.30621 2.94285 4.45535C2.921 4.5984 3.02403 4.73608 3.21525 4.8437Z" fill="#94A3B8"/>
<path d="M18.7502 19.3678C17.7784 19.0175 16.0869 18.0073 15.7971 17.8515C15.722 17.8078 15.635 17.7824 15.5418 17.7824C15.3385 17.7824 15.1635 17.9017 15.082 18.0744C14.2807 19.4157 12.7953 23.3162 11.7588 23.3886C11.7525 23.3881 11.7459 23.3868 11.7395 23.3861C11.7331 23.3868 11.7266 23.3881 11.7203 23.3886C10.6838 23.3162 9.19837 19.4157 8.39713 18.0744C8.31558 17.9017 8.14061 17.7824 7.93726 17.7824C7.84407 17.7824 7.75709 17.8078 7.68195 17.8515C7.39217 18.0073 5.70065 19.0175 4.7289 19.3678C1.46705 20.544 0 21.7435 0 22.5614C0 22.5851 0 22.6122 0 22.6419C0 23.638 0 27.9195 0 27.9195C0 27.9716 0 28 0 28H23.4791C23.4791 28 23.4791 27.9716 23.4791 27.9195C23.4791 27.9195 23.4791 23.6379 23.4791 22.6419C23.4791 22.6122 23.4791 22.5851 23.4791 22.5614C23.479 21.7435 22.012 20.544 18.7502 19.3678Z" fill="#94A3B8"/>
</g>
</svg>
