<svg width="18" height="16" viewBox="0 0 18 16" fill="none" xmlns="http://www.w3.org/2000/svg">
<path id="Vector" d="M8.12819 8.88476L6.78028 7.54964C6.6653 7.43466 6.5229 7.37584 6.35309 7.37317C6.18327 7.37051 6.03396 7.4336 5.90514 7.56243C5.78482 7.68273 5.72466 7.82859 5.72466 7.99999C5.72466 8.1714 5.78482 8.31726 5.90514 8.43756L7.60278 10.1352C7.7529 10.2853 7.92804 10.3604 8.12819 10.3604C8.32835 10.3604 8.50348 10.2853 8.6536 10.1352L12.0952 6.6936C12.2187 6.57011 12.2797 6.42559 12.2781 6.26002C12.2765 6.09447 12.2155 5.94728 12.0952 5.81847C11.9664 5.68964 11.8184 5.62309 11.6512 5.61882C11.4841 5.61457 11.3361 5.67686 11.2073 5.80568L8.12819 8.88476ZM6.01852 15.6258L4.87027 13.695L2.69831 13.2287C2.51198 13.1925 2.36319 13.0945 2.25194 12.9348C2.14068 12.7751 2.09623 12.6021 2.11859 12.4158L2.331 10.1815L0.853737 8.49187C0.725985 8.3556 0.662109 8.19164 0.662109 7.99999C0.662109 7.80835 0.725985 7.64439 0.853737 7.50812L2.331 5.81847L2.11859 3.58423C2.09623 3.3979 2.14068 3.22489 2.25194 3.06519C2.36319 2.90548 2.51198 2.80753 2.69831 2.77133L4.87027 2.30501L6.01852 0.374195C6.1186 0.210235 6.25489 0.0984422 6.42737 0.0388154C6.59984 -0.0207976 6.77498 -0.0117447 6.95278 0.0659722L9.00017 0.931557L11.0476 0.0659722C11.2254 -0.0117447 11.4005 -0.0207976 11.573 0.0388154C11.7455 0.0984422 11.8817 0.210235 11.9818 0.374195L13.1301 2.30501L15.302 2.77133C15.4884 2.80753 15.6372 2.90548 15.7484 3.06519C15.8597 3.22489 15.9041 3.3979 15.8818 3.58423L15.6693 5.81847L17.1466 7.50812C17.2744 7.64439 17.3383 7.80835 17.3383 7.99999C17.3383 8.19164 17.2744 8.3556 17.1466 8.49187L15.6693 10.1815L15.8818 12.4158C15.9041 12.6021 15.8597 12.7751 15.7484 12.9348C15.6372 13.0945 15.4884 13.1925 15.302 13.2287L13.1301 13.695L11.9818 15.6258C11.8817 15.7898 11.7455 15.9015 11.573 15.9612C11.4005 16.0208 11.2254 16.0117 11.0476 15.934L9.00017 15.0684L6.95278 15.934C6.77498 16.0117 6.59984 16.0208 6.42737 15.9612C6.25489 15.9015 6.1186 15.7898 6.01852 15.6258ZM6.8825 14.6021L9.00017 13.7046L11.1434 14.6021L12.322 12.609L14.6058 12.0852L14.3981 9.74395L15.9345 7.99999L14.3981 6.23048L14.6058 3.88923L12.322 3.39096L11.1178 1.39786L9.00017 2.2954L6.85695 1.39786L5.67834 3.39096L3.39458 3.88923L3.6022 6.23048L2.06585 7.99999L3.6022 9.74395L3.39458 12.1108L5.67834 12.609L6.8825 14.6021Z" fill="#16A34A"/>
</svg>
