<svg width="18" height="16" viewBox="0 0 18 16" fill="none" xmlns="http://www.w3.org/2000/svg">
<path id="Vector" d="M8.17893 8.5471L7.04564 7.43336C6.90235 7.29007 6.72324 7.21842 6.50831 7.21842C6.29338 7.21842 6.10775 7.29658 5.95144 7.4529C5.80815 7.59619 5.7365 7.77855 5.7365 8C5.7365 8.22145 5.80815 8.40382 5.95144 8.5471L7.63183 10.2275C7.78814 10.3838 7.97051 10.462 8.17893 10.462C8.38735 10.462 8.56972 10.3838 8.72603 10.2275L12.0477 6.90579C12.2041 6.74948 12.279 6.56711 12.2724 6.35869C12.2659 6.15027 12.191 5.9679 12.0477 5.81158C11.8914 5.65527 11.7058 5.57385 11.4909 5.56734C11.2759 5.56083 11.0903 5.63573 10.934 5.79204L8.17893 8.5471ZM5.99051 15.6204L4.85723 13.7055L2.70789 13.2366C2.5125 13.1975 2.35618 13.0965 2.23894 12.9337C2.12171 12.7709 2.07612 12.5918 2.10217 12.3964L2.3171 10.1884L0.851644 8.50803C0.721381 8.36474 0.65625 8.19539 0.65625 8C0.65625 7.80461 0.721381 7.63526 0.851644 7.49197L2.3171 5.81158L2.10217 3.60363C2.07612 3.40823 2.12171 3.22912 2.23894 3.06629C2.35618 2.90347 2.5125 2.80251 2.70789 2.76343L4.85723 2.29449L5.99051 0.379623C6.09472 0.210281 6.23801 0.0963015 6.42038 0.0376832C6.60275 -0.0209351 6.78512 -0.0111654 6.96749 0.0669923L8.99959 0.926727L11.0317 0.0669923C11.2141 -0.0111654 11.3964 -0.0209351 11.5788 0.0376832C11.7612 0.0963015 11.9044 0.210281 12.0087 0.379623L13.1419 2.29449L15.2913 2.76343C15.4867 2.80251 15.643 2.90347 15.7602 3.06629C15.8775 3.22912 15.9231 3.40823 15.897 3.60363L15.6821 5.81158L17.1475 7.49197C17.2778 7.63526 17.3429 7.80461 17.3429 8C17.3429 8.19539 17.2778 8.36474 17.1475 8.50803L15.6821 10.1884L15.897 12.3964C15.9231 12.5918 15.8775 12.7709 15.7602 12.9337C15.643 13.0965 15.4867 13.1975 15.2913 13.2366L13.1419 13.7055L12.0087 15.6204C11.9044 15.7897 11.7612 15.9037 11.5788 15.9623C11.3964 16.0209 11.2141 16.0112 11.0317 15.933L8.99959 15.0733L6.96749 15.933C6.78512 16.0112 6.60275 16.0209 6.42038 15.9623C6.23801 15.9037 6.09472 15.7897 5.99051 15.6204Z" fill="#16A34A"/>
</svg>
