<svg width="40" height="40" viewBox="0 0 40 40" fill="none" xmlns="http://www.w3.org/2000/svg">
<g id="Group 5">
<path id="Ellipse 33" d="M40 20C40 31.0457 31.0457 40 20 40C8.9543 40 0 31.0457 0 20C0 8.9543 8.9543 0 20 0C31.0457 0 40 8.9543 40 20ZM2 20C2 29.9411 10.0589 38 20 38C29.9411 38 38 29.9411 38 20C38 10.0589 29.9411 2 20 2C10.0589 2 2 10.0589 2 20Z" fill="#EEF2FF"/>
<path id="Ellipse 34" d="M20 0C23.1756 -3.78686e-08 26.3055 0.756183 29.1309 2.20598C31.9562 3.65578 34.3957 5.75752 36.2475 8.3373C38.0993 10.9171 39.3102 13.9007 39.78 17.0414C40.2497 20.182 39.9649 23.3894 38.949 26.3981C37.9331 29.4069 36.2153 32.1304 33.9379 34.3435C31.6604 36.5565 28.8887 38.1955 25.8521 39.1247C22.8155 40.0539 19.6013 40.2466 16.4754 39.687C13.3495 39.1273 10.4018 37.8314 7.87619 35.9064L9.08857 34.3158C11.3616 36.0483 14.0146 37.2146 16.8279 37.7183C19.6412 38.222 22.534 38.0485 25.2669 37.2122C27.9999 36.3759 30.4944 34.9009 32.5441 32.9091C34.5938 30.9174 36.1398 28.4662 37.0541 25.7583C37.9684 23.0505 38.2248 20.1638 37.802 17.3372C37.3792 14.5107 36.2894 11.8254 34.6228 9.50357C32.9561 7.18177 30.7606 5.2902 28.2178 3.98538C25.675 2.68057 22.858 2 20 2V0Z" fill="#4F46E5"/>
</g>
</svg>
