<svg width="166" height="101" viewBox="0 0 166 101" fill="none" xmlns="http://www.w3.org/2000/svg">
<line x1="1.10742" y1="0.0507813" x2="1.10742" y2="89.1017" stroke="#E2E8F0"/>
<line x1="42.4199" y1="0.0507813" x2="42.4199" y2="89.1017" stroke="#E2E8F0"/>
<line x1="82.814" y1="0.0507813" x2="82.814" y2="89.1017" stroke="#E2E8F0"/>
<line x1="124.126" y1="0.0507813" x2="124.126" y2="89.1017" stroke="#E2E8F0"/>
<line x1="164.521" y1="0.0507813" x2="164.521" y2="89.1017" stroke="#E2E8F0"/>
<line x1="0.607422" y1="15.1577" x2="164.02" y2="15.1577" stroke="#E2E8F0"/>
<line x1="0.607422" y1="54.6343" x2="164.02" y2="54.6343" stroke="#E2E8F0"/>
<line x1="21.3047" y1="0.0507813" x2="21.3047" y2="89.1017" stroke="#E2E8F0"/>
<line x1="62.6167" y1="0.0507813" x2="62.6167" y2="89.1017" stroke="#E2E8F0"/>
<line x1="103.011" y1="0.0507813" x2="103.011" y2="89.1017" stroke="#E2E8F0"/>
<line x1="144.323" y1="0.0507813" x2="144.323" y2="89.1017" stroke="#E2E8F0"/>
<line x1="0.607422" y1="35.355" x2="164.02" y2="35.355" stroke="#E2E8F0"/>
<line x1="0.607422" y1="74.8311" x2="164.02" y2="74.8311" stroke="#E2E8F0"/>
<rect x="148.693" y="90.9375" width="15.6069" height="9.18051" fill="#CE2D95"/>
<rect x="129.414" y="52.3799" width="13.7708" height="12.8527" fill="#AC46CB"/>
</svg>
