<svg width="18" height="16" viewBox="0 0 18 16" fill="none" xmlns="http://www.w3.org/2000/svg">
<path id="Vector" d="M15.75 3.5H3.75C3.10575 3.5 2.496 3.221 2.07375 2.75075C2.48625 2.29025 3.0855 2 3.75 2H17.25C17.6647 2 18 1.664 18 1.25C18 0.836 17.6647 0.5 17.25 0.5H3.75C1.67925 0.5 0 2.17925 0 4.25V11.75C0 13.8208 1.67925 15.5 3.75 15.5H15.75C16.9928 15.5 18 14.4928 18 13.25V5.75C18 4.50725 16.9928 3.5 15.75 3.5ZM16.5 13.25C16.5 13.6632 16.164 14 15.75 14H3.75C2.5095 14 1.5 12.9905 1.5 11.75V4.2485C2.1405 4.72775 2.928 5 3.75 5H15.75C16.164 5 16.5 5.33675 16.5 5.75V13.25ZM15 9.5C15 9.914 14.664 10.25 14.25 10.25C13.836 10.25 13.5 9.914 13.5 9.5C13.5 9.086 13.836 8.75 14.25 8.75C14.664 8.75 15 9.086 15 9.5Z" fill="#CBD5E1"/>
</svg>
