<svg width="162" height="134" viewBox="0 0 162 134" fill="none" xmlns="http://www.w3.org/2000/svg">
<g id="Password">
<g id="Rectangle 143" filter="url(#filter0_d_2016_11791)">
<rect x="16.8398" y="11.2471" width="118.429" height="90.887" rx="8" fill="white"/>
</g>
<rect id="Rectangle 142" x="26.9385" y="25.0176" width="42.2303" height="3.6722" rx="1.8361" fill="#E2E8F0"/>
<rect id="Rectangle 144" x="26.9385" y="31.4443" width="18.361" height="3.6722" rx="1.8361" fill="#E2E8F0"/>
<rect id="Rectangle 145" x="105.891" y="88.3633" width="18.361" height="3.6722" rx="1.8361" fill="#E2E8F0"/>
<g id="Chart">
<path id="Bg" d="M75.5952 90.1998C70.516 90.1998 65.5356 88.7952 61.2048 86.1412C56.874 83.4873 53.3615 79.6875 51.0556 75.1618C48.7496 70.6362 47.7401 65.561 48.1386 60.4973C48.5371 55.4337 50.3282 50.5789 53.3137 46.4697L63.3404 53.7545C61.6983 56.0146 60.7133 58.6847 60.4941 61.4697C60.2749 64.2547 60.8301 67.0461 62.0984 69.5352C63.3667 72.0243 65.2986 74.1142 67.6805 75.5739C70.0624 77.0335 72.8016 77.8061 75.5952 77.8061L75.5952 90.1998Z" fill="#CE2D95"/>
<path id="Bg_2" d="M103.306 61.798C103.422 65.5029 102.788 69.193 101.444 72.6473C100.1 76.1016 98.0718 79.249 95.482 81.9009C92.8922 84.5528 89.7938 86.6547 86.3723 88.0805C82.9508 89.5064 79.2767 90.2269 75.5701 90.199L75.6636 77.8056C77.7022 77.821 79.723 77.4247 81.6048 76.6405C83.4866 75.8563 85.1908 74.7002 86.6152 73.2417C88.0395 71.7832 89.1549 70.0521 89.8943 68.1522C90.6337 66.2524 90.982 64.2228 90.9183 62.1851L103.306 61.798Z" fill="#F45757"/>
<path id="Bg_3" d="M53.2295 46.605C56.5872 41.9248 61.3278 38.4151 66.7842 36.5698C72.2407 34.7245 78.1384 34.6363 83.6476 36.3178C89.1568 37.9993 94.0001 41.3658 97.4962 45.9435C100.992 50.5213 102.965 56.08 103.137 61.8375L91.0129 62.1996C90.9166 58.9778 89.8127 55.8671 87.8563 53.3055C85.9 50.7438 83.1897 48.8599 80.1068 47.919C77.0239 46.978 73.7236 47.0273 70.6701 48.06C67.6167 49.0926 64.9639 51.0566 63.085 53.6756L53.2295 46.605Z" fill="#AC46CB"/>
</g>
</g>
<defs>
<filter id="filter0_d_2016_11791" x="0.839844" y="0.24707" width="160.428" height="132.887" filterUnits="userSpaceOnUse" color-interpolation-filters="sRGB">
<feFlood flood-opacity="0" result="BackgroundImageFix"/>
<feColorMatrix in="SourceAlpha" type="matrix" values="0 0 0 0 0 0 0 0 0 0 0 0 0 0 0 0 0 0 127 0" result="hardAlpha"/>
<feOffset dx="5" dy="10"/>
<feGaussianBlur stdDeviation="10.5"/>
<feComposite in2="hardAlpha" operator="out"/>
<feColorMatrix type="matrix" values="0 0 0 0 0.700272 0 0 0 0 0.700272 0 0 0 0 0.700272 0 0 0 0.25 0"/>
<feBlend mode="normal" in2="BackgroundImageFix" result="effect1_dropShadow_2016_11791"/>
<feBlend mode="normal" in="SourceGraphic" in2="effect1_dropShadow_2016_11791" result="shape"/>
</filter>
</defs>
</svg>
