<svg width="16" height="16" viewBox="0 0 16 16" fill="none" xmlns="http://www.w3.org/2000/svg">
<path id="Vector" d="M6.02077 6.86903H6.98542C7.2022 6.86903 7.38391 6.79571 7.53055 6.64907C7.67719 6.50244 7.75051 6.32073 7.75051 6.10397V5.13929C7.75051 4.92253 7.67719 4.74083 7.53055 4.59419C7.38391 4.44755 7.2022 4.37423 6.98542 4.37423H5.63824C5.53622 4.37423 5.44696 4.41248 5.37045 4.48898C5.29394 4.56549 5.25568 4.65475 5.25568 4.75676V8.21624C5.25568 8.31825 5.29394 8.40751 5.37045 8.484C5.44696 8.56052 5.53622 8.59877 5.63824 8.59877C5.74023 8.59877 5.82949 8.56052 5.906 8.484C5.98251 8.40751 6.02077 8.31825 6.02077 8.21624V6.86903ZM6.02077 6.10397V5.13929H6.98542V6.10397H6.02077ZM10.3285 8.59877C10.5452 8.59877 10.727 8.52545 10.8736 8.37881C11.0202 8.23217 11.0936 8.05047 11.0936 7.83371V5.13929C11.0936 4.92253 11.0202 4.74083 10.8736 4.59419C10.727 4.44755 10.5452 4.37423 10.3285 4.37423H9.01453C8.91252 4.37423 8.82327 4.41248 8.74677 4.48898C8.67026 4.56549 8.632 4.65475 8.632 4.75676V8.21624C8.632 8.31825 8.67026 8.40751 8.74677 8.484C8.82327 8.56052 8.91252 8.59877 9.01453 8.59877H10.3285ZM9.39707 7.83371V5.13929H10.3285V7.83371H9.39707ZM12.8233 6.86903H13.4719C13.574 6.86903 13.6632 6.83078 13.7397 6.75429C13.8162 6.67777 13.8545 6.58851 13.8545 6.4865C13.8545 6.38449 13.8162 6.29523 13.7397 6.21871C13.6632 6.14222 13.574 6.10397 13.4719 6.10397H12.8233V5.13929H13.4719C13.574 5.13929 13.6632 5.10104 13.7397 5.02455C13.8162 4.94803 13.8545 4.85877 13.8545 4.75676C13.8545 4.65475 13.8162 4.56549 13.7397 4.48898C13.6632 4.41248 13.574 4.37423 13.4719 4.37423H12.4408C12.3387 4.37423 12.2495 4.41248 12.173 4.48898C12.0965 4.56549 12.0582 4.65475 12.0582 4.75676V8.21624C12.0582 8.31825 12.0965 8.40751 12.173 8.484C12.2495 8.56052 12.3387 8.59877 12.4408 8.59877C12.5428 8.59877 12.632 8.56052 12.7085 8.484C12.785 8.40751 12.8233 8.31825 12.8233 8.21624V6.86903ZM4.59043 12.973C4.15355 12.973 3.78377 12.8216 3.48108 12.5189C3.17837 12.2162 3.02702 11.8465 3.02702 11.4096V1.56343C3.02702 1.12655 3.17837 0.756761 3.48108 0.454057C3.78377 0.151352 4.15355 0 4.59043 0H14.4366C14.8735 0 15.2432 0.151352 15.5459 0.454057C15.8486 0.756761 16 1.12655 16 1.56343V11.4096C16 11.8465 15.8486 12.2162 15.5459 12.5189C15.2432 12.8216 14.8735 12.973 14.4366 12.973H4.59043ZM4.59043 11.6757H14.4366C14.5031 11.6757 14.5641 11.648 14.6196 11.5926C14.675 11.5371 14.7027 11.4761 14.7027 11.4096V1.56343C14.7027 1.49689 14.675 1.43589 14.6196 1.38044C14.5641 1.325 14.5031 1.29728 14.4366 1.29728H4.59043C4.52389 1.29728 4.4629 1.325 4.40746 1.38044C4.35201 1.43589 4.32428 1.49689 4.32428 1.56343V11.4096C4.32428 11.4761 4.35201 11.5371 4.40746 11.5926C4.4629 11.648 4.52389 11.6757 4.59043 11.6757ZM1.5634 16C1.12654 16 0.756761 15.8486 0.454057 15.5459C0.151352 15.2432 0 14.8735 0 14.4366V3.94179C0 3.75801 0.0621913 3.60395 0.186574 3.47963C0.310957 3.35532 0.465076 3.29316 0.648933 3.29316C0.83279 3.29316 0.986816 3.35532 1.11101 3.47963C1.23519 3.60395 1.29728 3.75801 1.29728 3.94179V14.4366C1.29728 14.5031 1.325 14.5641 1.38044 14.6196C1.43589 14.675 1.49688 14.7027 1.5634 14.7027H12.0582C12.242 14.7027 12.396 14.7649 12.5204 14.8893C12.6447 15.0137 12.7069 15.1678 12.7069 15.3517C12.7069 15.5355 12.6447 15.6895 12.5204 15.8137C12.396 15.9379 12.242 16 12.0582 16H1.5634Z" fill="#EA580C"/>
</svg>
