<svg width="16" height="12" viewBox="0 0 16 12" fill="none" xmlns="http://www.w3.org/2000/svg">
<path id="Vector" d="M0 11.8182V9.78189C0 9.36976 0.106061 8.99098 0.318182 8.64552C0.530303 8.30007 0.812121 8.03643 1.16364 7.85461C1.91515 7.47885 2.67879 7.19704 3.45455 7.00916C4.2303 6.82128 5.01818 6.72734 5.81818 6.72734C6.61818 6.72734 7.40606 6.82128 8.18182 7.00916C8.95758 7.19704 9.72121 7.47885 10.4727 7.85461C10.8242 8.03643 11.1061 8.30007 11.3182 8.64552C11.5303 8.99098 11.6364 9.36976 11.6364 9.78189V11.8182H0ZM13.0909 11.8182V9.63643C13.0909 9.1031 12.9424 8.59098 12.6455 8.10007C12.3485 7.60916 11.9273 7.18795 11.3818 6.83643C12 6.90916 12.5818 7.0334 13.1273 7.20916C13.6727 7.38492 14.1818 7.60007 14.6545 7.85461C15.0909 8.09704 15.4242 8.36673 15.6545 8.6637C15.8848 8.96067 16 9.28491 16 9.63643V11.8182H13.0909ZM5.81818 6.00007C5.01818 6.00007 4.33333 5.71522 3.76364 5.14552C3.19394 4.57582 2.90909 3.89098 2.90909 3.09098C2.90909 2.29098 3.19394 1.60613 3.76364 1.03643C4.33333 0.466733 5.01818 0.181885 5.81818 0.181885C6.61818 0.181885 7.30303 0.466733 7.87273 1.03643C8.44242 1.60613 8.72727 2.29098 8.72727 3.09098C8.72727 3.89098 8.44242 4.57582 7.87273 5.14552C7.30303 5.71522 6.61818 6.00007 5.81818 6.00007ZM13.0909 3.09098C13.0909 3.89098 12.8061 4.57582 12.2364 5.14552C11.6667 5.71522 10.9818 6.00007 10.1818 6.00007C10.0485 6.00007 9.87879 5.98492 9.67273 5.95461C9.46667 5.92431 9.29697 5.89098 9.16364 5.85461C9.49091 5.46673 9.74242 5.03643 9.91818 4.5637C10.0939 4.09098 10.1818 3.60007 10.1818 3.09098C10.1818 2.58188 10.0939 2.09098 9.91818 1.61825C9.74242 1.14552 9.49091 0.715218 9.16364 0.327339C9.33333 0.266733 9.50303 0.227339 9.67273 0.209157C9.84242 0.190976 10.0121 0.181885 10.1818 0.181885C10.9818 0.181885 11.6667 0.466733 12.2364 1.03643C12.8061 1.60613 13.0909 2.29098 13.0909 3.09098ZM1.45455 10.3637H10.1818V9.78189C10.1818 9.64855 10.1485 9.52734 10.0818 9.41825C10.0152 9.30916 9.92727 9.22431 9.81818 9.1637C9.16364 8.83643 8.50303 8.59098 7.83636 8.42734C7.1697 8.2637 6.49697 8.18188 5.81818 8.18188C5.13939 8.18188 4.46667 8.2637 3.8 8.42734C3.13333 8.59098 2.47273 8.83643 1.81818 9.1637C1.70909 9.22431 1.62121 9.30916 1.55455 9.41825C1.48788 9.52734 1.45455 9.64855 1.45455 9.78189V10.3637ZM5.81818 4.54552C6.21818 4.54552 6.56061 4.4031 6.84546 4.11825C7.1303 3.8334 7.27273 3.49098 7.27273 3.09098C7.27273 2.69098 7.1303 2.34855 6.84546 2.0637C6.56061 1.77885 6.21818 1.63643 5.81818 1.63643C5.41818 1.63643 5.07576 1.77885 4.79091 2.0637C4.50606 2.34855 4.36364 2.69098 4.36364 3.09098C4.36364 3.49098 4.50606 3.8334 4.79091 4.11825C5.07576 4.4031 5.41818 4.54552 5.81818 4.54552Z" fill="#94A3B8"/>
</svg>
