<svg width="18" height="18" viewBox="0 0 18 18" fill="none" xmlns="http://www.w3.org/2000/svg">
<path id="Icons" d="M16.9995 12.987V15.4004C17.0004 15.6245 16.9545 15.8462 16.8648 16.0515C16.775 16.2568 16.6434 16.4411 16.4783 16.5925C16.3132 16.744 16.1183 16.8593 15.906 16.9311C15.6938 17.0029 15.4689 17.0295 15.2457 17.0094C12.7702 16.7404 10.3923 15.8945 8.30312 14.5396C6.35937 13.3045 4.71141 11.6565 3.47627 9.71277C2.11669 7.61406 1.27059 5.2246 1.00653 2.73797C0.986426 2.5155 1.01286 2.29129 1.08416 2.0796C1.15546 1.86792 1.27005 1.67339 1.42065 1.50842C1.57124 1.34345 1.75454 1.21164 1.95886 1.12139C2.16319 1.03114 2.38407 0.984419 2.60744 0.984209H5.02086C5.41128 0.980366 5.78977 1.11862 6.0858 1.3732C6.38182 1.62778 6.57517 1.98131 6.62981 2.36791C6.73168 3.14026 6.92059 3.8986 7.19295 4.62848C7.30118 4.91642 7.32461 5.22936 7.26045 5.5302C7.19629 5.83105 7.04723 6.1072 6.83093 6.32593L5.80925 7.34761C6.95446 9.36165 8.62206 11.0292 10.6361 12.1745L11.6578 11.1528C11.8765 10.9365 12.1527 10.7874 12.4535 10.7233C12.7544 10.6591 13.0673 10.6825 13.3552 10.7908C14.0851 11.0631 14.8435 11.252 15.6158 11.3539C16.0066 11.409 16.3635 11.6059 16.6186 11.907C16.8737 12.2081 17.0093 12.5924 16.9995 12.987Z" stroke="#94A3B8" stroke-width="1.5" stroke-linecap="round" stroke-linejoin="round"/>
</svg>
