<svg width="16" height="18" viewBox="0 0 16 18" fill="none" xmlns="http://www.w3.org/2000/svg">
<path id="Icons" d="M1 4.33328H2.55556M2.55556 4.33328H15M2.55556 4.33328V15.2222C2.55556 15.6347 2.71944 16.0304 3.01117 16.3221C3.30289 16.6138 3.69855 16.7777 4.11111 16.7777H11.8889C12.3014 16.7777 12.6971 16.6138 12.9888 16.3221C13.2806 16.0304 13.4444 15.6347 13.4444 15.2222V4.33328M4.88889 4.33328V2.77772C4.88889 2.36516 5.05278 1.9695 5.3445 1.67778C5.63622 1.38606 6.03189 1.22217 6.44444 1.22217H9.55556C9.96811 1.22217 10.3638 1.38606 10.6555 1.67778C10.9472 1.9695 11.1111 2.36516 11.1111 2.77772V4.33328" stroke="#ED0A34" stroke-width="1.5" stroke-linecap="round" stroke-linejoin="round"/>
</svg>
