<svg width="18" height="16" viewBox="0 0 18 16" fill="none" xmlns="http://www.w3.org/2000/svg">
<path id="Icons" d="M11.912 10.9079L9.00314 7.99912M9.00314 7.99912L6.09432 10.9079M9.00314 7.99912V14.544M15.1044 12.646C15.8137 12.2593 16.374 11.6474 16.6969 10.9069C17.0198 10.1665 17.0869 9.33953 16.8877 8.55666C16.6884 7.77379 16.2341 7.07957 15.5965 6.58357C14.9588 6.08757 14.1742 5.81803 13.3664 5.8175H12.4501C12.23 4.96612 11.8197 4.17571 11.2502 3.50571C10.6806 2.8357 9.96657 2.30353 9.16174 1.94921C8.35691 1.59488 7.48222 1.42762 6.60344 1.46C5.72467 1.49238 4.86466 1.72355 4.08808 2.13614C3.31151 2.54873 2.63857 3.13201 2.11986 3.84211C1.60115 4.55221 1.25017 5.37066 1.09331 6.23593C0.936443 7.1012 0.977774 7.99078 1.21419 8.83777C1.45061 9.68477 1.87597 10.4672 2.45829 11.1261" stroke="#312E81" stroke-width="1.5" stroke-linecap="round" stroke-linejoin="round"/>
</svg>
