<svg width="20" height="16" viewBox="0 0 20 16" fill="none" xmlns="http://www.w3.org/2000/svg">
<path id="Vector" d="M10.4624 16H2.2124C1.6624 16 1.19157 15.8042 0.799902 15.4125C0.408236 15.0208 0.212402 14.55 0.212402 14V13.2C0.212402 12.65 0.354069 12.1333 0.637402 11.65C0.920736 11.1667 1.3124 10.8 1.8124 10.55C2.6624 10.1167 3.62074 9.75 4.6874 9.45C5.75407 9.15 6.92907 9 8.2124 9C8.7124 9 9.1999 9.025 9.6749 9.075C10.1499 9.125 10.6124 9.2 11.0624 9.3L9.3124 11.05C9.12907 11.0167 8.9499 11 8.7749 11H8.2124C7.02907 11 5.96657 11.1417 5.0249 11.425C4.08324 11.7083 3.3124 12.0167 2.7124 12.35C2.5624 12.4333 2.44157 12.55 2.3499 12.7C2.25824 12.85 2.2124 13.0167 2.2124 13.2V14H8.4624L10.4624 16ZM13.7624 13.6L18.1124 9.25C18.2957 9.06667 18.5291 8.975 18.8124 8.975C19.0957 8.975 19.3291 9.06667 19.5124 9.25C19.6957 9.43333 19.7874 9.66667 19.7874 9.95C19.7874 10.2333 19.6957 10.4667 19.5124 10.65L14.4624 15.7C14.2624 15.9 14.0291 16 13.7624 16C13.4957 16 13.2624 15.9 13.0624 15.7L11.0124 13.65C10.8291 13.4667 10.7374 13.2333 10.7374 12.95C10.7374 12.6667 10.8291 12.4333 11.0124 12.25C11.1957 12.0667 11.4291 11.975 11.7124 11.975C11.9957 11.975 12.2291 12.0667 12.4124 12.25L13.7624 13.6ZM8.2124 8C7.1124 8 6.17074 7.60833 5.3874 6.825C4.60407 6.04167 4.2124 5.1 4.2124 4C4.2124 2.9 4.60407 1.95833 5.3874 1.175C6.17074 0.391667 7.1124 0 8.2124 0C9.3124 0 10.2541 0.391667 11.0374 1.175C11.8207 1.95833 12.2124 2.9 12.2124 4C12.2124 5.1 11.8207 6.04167 11.0374 6.825C10.2541 7.60833 9.3124 8 8.2124 8ZM8.2124 6C8.7624 6 9.23324 5.80417 9.6249 5.4125C10.0166 5.02083 10.2124 4.55 10.2124 4C10.2124 3.45 10.0166 2.97917 9.6249 2.5875C9.23324 2.19583 8.7624 2 8.2124 2C7.6624 2 7.19157 2.19583 6.7999 2.5875C6.40824 2.97917 6.2124 3.45 6.2124 4C6.2124 4.55 6.40824 5.02083 6.7999 5.4125C7.19157 5.80417 7.6624 6 8.2124 6Z" fill="#F45757"/>
</svg>
