<svg xmlns="http://www.w3.org/2000/svg" width="400" height="400" id="verification-mail"><path fill="#FFBC00" d="M164.014 294.267 34.756 375.649 6.631 393.36v-225l28.125 22.5 18.368 14.696 15.914 12.726z"></path><path fill="#FFBC00" d="M34.756 168.36v22.5l-28.125-22.5zM393.35 168.36l-28.125 22.407V168.36zM34.756 144.838v23.522H6.631zM393.35 168.36h-28.125v-23.522z"></path><path fill="#FFBC00" d="M34.756 168.36v22.5l-28.125-22.5zM393.35 168.36l-28.125 22.407V168.36z"></path><path fill="#FFD15F" d="M393.35 393.36H6.631l28.125-17.711 129.26-81.383 26.029-16.391a17.962 17.962 0 0 1 19.118-.018l26.164 16.404 129.896 81.463 28.127 17.636z"></path><path fill="#FFBC00" d="M393.35 168.36v225l-28.125-17.632-129.899-81.461 129.899-103.5z"></path><path fill="#FFE1D3" d="M365.225 6.642v184.125l-129.898 103.5-26.164-16.406a17.965 17.965 0 0 0-19.117.016l-26.029 16.391-94.979-75.982-15.914-12.729-18.368-14.697V6.642h330.469z"></path><circle cx="59.366" cy="45.313" r="10.547" fill="#0CC"></circle><circle cx="59.366" cy="87.502" r="10.547" fill="#0CC"></circle><circle cx="59.366" cy="129.688" r="10.547" fill="#0CC"></circle><circle cx="59.366" cy="171.877" r="10.547" fill="#0CC"></circle><path fill="#FFBC00" d="M69.913 214.063c0 1.5-.313 2.93-.875 4.219l-15.914-12.727a10.529 10.529 0 0 1 6.242-2.039c5.828.001 10.547 4.719 10.547 10.547z"></path><circle cx="305.459" cy="66.408" r="38.672" fill="#0CC"></circle><path fill="#474668" d="M397.645 395.919c.018-.027.029-.059.047-.086.193-.342.35-.705.461-1.09.006-.025.016-.05.021-.074.055-.199.096-.397.123-.604.006-.038.008-.076.014-.114.021-.193.059-.387.059-.588 0-.096-.014-.188-.02-.279V168.555c.004-.066.02-.127.02-.194a4.994 4.994 0 0 0-2.078-4.059L370.225 142.5V6.642c0-2.761-2.236-5-5-5H34.756a5 5 0 0 0-5 5v135.859L3.423 164.525c-.021.019-.036.04-.059.059a5.767 5.767 0 0 0-.141.127c-.073.067-.142.143-.209.215-.06.061-.121.118-.177.181-.037.045-.072.094-.109.142-.066.082-.125.168-.188.255l-.046.063c-.027.043-.063.083-.093.127-.033.054-.058.11-.089.164a4.112 4.112 0 0 0-.148.277c-.031.065-.07.129-.103.197-.029.065-.048.136-.074.202l-.001.002c-.021.059-.054.11-.075.17-.014.038-.019.079-.032.118-.021.064-.044.126-.063.191-.023.083-.036.169-.055.253-.021.095-.045.189-.063.285-.009.059-.019.116-.024.175-.014.096-.017.192-.021.288-.006.093-.018.186-.019.279 0 .021-.005.042-.005.063v225c0 .136.018.27.026.402.006.074.005.146.016.219.031.252.08.499.148.74.002.009.002.018.005.023.013.041.032.077.044.117.063.191.131.38.213.563.037.08.079.158.12.235a4.863 4.863 0 0 0 .712 1.029c.058.063.108.127.167.188.147.146.306.284.472.416.027.021.054.049.083.068.183.139.375.264.579.375.014.008.028.014.044.021.059.032.121.058.182.086a4.193 4.193 0 0 0 .728.289c.163.051.327.092.492.123.077.017.153.031.231.045.245.035.49.061.736.061h386.74c.012 0 .021-.003.033-.003.271-.003.545-.035.813-.083.096-.016.189-.031.279-.053.24-.059.479-.129.713-.221.121-.051.234-.109.354-.168.068-.033.141-.062.209-.1.051-.028.096-.063.146-.096.133-.08.266-.158.393-.252.076-.058.148-.123.225-.187.238-.194.455-.409.652-.646.047-.059.096-.111.141-.172.117-.141.222-.294.32-.458zm-27.42-215.528v-7.03h8.822l-8.822 7.03zM300.031 328.94l-56.07-35.161 31.459-25.063 112.932-89.979v205.587l-88.321-55.384zm79.547-165.58h-9.354v-7.822l9.354 7.822zM39.756 11.642h320.471v176.714L243.02 281.745l-8.037 6.402-23.162-14.523a22.944 22.944 0 0 0-12.205-3.511 22.936 22.936 0 0 0-12.231 3.53l-23.021 14.494-82.677-66.141a4.958 4.958 0 0 0 2.292.579h161.719c2.762 0 5-2.237 5-5a5 5 0 0 0-5-5H83.975c-2.763 0-5 2.238-5 5 0 1.229.46 2.341 1.193 3.209l-5.456-4.362c.118-.776.198-1.563.198-2.36 0-8.572-6.974-15.547-15.547-15.547-1.973 0-3.89.374-5.686 1.079l-13.925-11.139V11.642h.004zm-10 168.816-8.869-7.098h8.869v7.098zM11.631 384.302V178.764l38.354 30.683.016.016 5.509 4.403 99.894 79.915-97.065 61.115-46.708 29.406zm18.125-228.764v7.822h-9.354l9.354-7.822zM23.958 388.36l142.723-89.861 26.029-16.392c4.137-2.604 9.654-2.606 13.798-.011L375.961 388.36H23.958z"></path><path fill="#474668" d="M59.366 60.86c8.573 0 15.547-6.974 15.547-15.547s-6.974-15.547-15.547-15.547-15.547 6.974-15.547 15.547S50.793 60.86 59.366 60.86zm0-21.093a5.552 5.552 0 0 1 5.547 5.547 5.55 5.55 0 0 1-5.547 5.547 5.552 5.552 0 0 1-5.547-5.547 5.553 5.553 0 0 1 5.547-5.547zm0 63.282c8.573 0 15.547-6.975 15.547-15.547 0-8.573-6.974-15.547-15.547-15.547s-15.547 6.974-15.547 15.547c0 8.572 6.974 15.547 15.547 15.547zm0-21.094a5.55 5.55 0 0 1 5.547 5.547 5.552 5.552 0 0 1-5.547 5.547 5.553 5.553 0 0 1-5.547-5.547 5.552 5.552 0 0 1 5.547-5.547zm0 63.28c8.573 0 15.547-6.974 15.547-15.547s-6.974-15.547-15.547-15.547-15.547 6.974-15.547 15.547 6.974 15.547 15.547 15.547zm0-21.093a5.552 5.552 0 0 1 5.547 5.547 5.55 5.55 0 0 1-5.547 5.547 5.552 5.552 0 0 1-5.547-5.547 5.553 5.553 0 0 1 5.547-5.547zm0 63.282c8.573 0 15.547-6.975 15.547-15.547 0-8.573-6.974-15.547-15.547-15.547s-15.547 6.974-15.547 15.547c0 8.572 6.974 15.547 15.547 15.547zm0-21.094a5.55 5.55 0 0 1 5.547 5.547 5.552 5.552 0 0 1-5.547 5.547 5.553 5.553 0 0 1-5.547-5.547 5.552 5.552 0 0 1 5.547-5.547zm24.609-112.5h161.718a5 5 0 1 0 0-10H83.975a5 5 0 0 0 0 10zm0 42.187h161.718a5 5 0 1 0 0-10H83.975a5 5 0 1 0 0 10zm0 42.188h161.718a5 5 0 1 0 0-10H83.975a5 5 0 0 0 0 10zm0 42.187h161.718a5 5 0 1 0 0-10H83.975a5 5 0 1 0 0 10zm304.375-1.656s-4.59 120.851-115.418 139.112L393.35 393.36v-225l-5 10.376z"></path><path fill="#474668" d="M360.225 11.642s2.609 240.301-227.256 251.385L161.1 293.11l38.898-17.996 35.326 19.152 129.896-103.5-4.995-179.124z" opacity=".6"></path><path fill="#464668" d="M305.86 110.469c-24.081 0-43.672-19.591-43.672-43.672s19.591-43.672 43.672-43.672 43.672 19.591 43.672 43.672-19.591 43.672-43.672 43.672zm0-77.344c-18.566 0-33.672 15.105-33.672 33.672s15.105 33.672 33.672 33.672 33.672-15.105 33.672-33.672-15.106-33.672-33.672-33.672z"></path><path fill="#464668" d="M298.609 86.298a4.983 4.983 0 0 1-3.535-1.464l-14.502-14.501a5 5 0 1 1 7.07-7.071l10.967 10.966 25.469-25.468a5 5 0 0 1 7.07 7.071l-29.004 29.003a4.984 4.984 0 0 1-3.535 1.464z"></path></svg>